<?xml version="1.0" encoding="utf-8"?>
<!-- Generator: Adobe Illustrator 24.1.1, SVG Export Plug-In . SVG Version: 6.00 Build 0)  -->
<svg version="1.1" id="vector" xmlns="http://www.w3.org/2000/svg" xmlns:xlink="http://www.w3.org/1999/xlink" x="0px" y="0px"
	 viewBox="0 0 432 432" style="enable-background:new 0 0 432 432;" xml:space="preserve">
<style type="text/css">
	.st0{fill:#4285F4;}
	.st1{fill:#DB4437;}
	.st2{fill:#F4B400;}
	.st3{fill:#0F9D58;}
</style>
<path id="path_8" class="st0" d="M39.3,39.3h78.4V0C78.6,0,39.3,0,0,0.2v117.7h39.3V39.3z"/>
<path id="path_9" class="st1" d="M392.7,117.7H432c0-39.1,0-78.4-0.2-117.7H314.1v39.3h78.6V117.7z"/>
<path id="path_10" class="st2" d="M39.3,314.3H0c0,39.1,0,78.4,0.2,117.7h117.7v-39.3H39.3V314.3z"/>
<path id="path_11" class="st3" d="M392.7,392.7h-78.4V432c39.1,0,78.4,0,117.7-0.2V314.1h-39.3V392.7z"/>
<path id="path_12" d="M209.9,260.3v12.7h-13v-12.7h-38.2v38h13v-12.5h50.7v-25.5H209.9z"/>
<path id="path_13" d="M324,349.5v12.3h12.5v-12.5h12.7V324h-12.7v12.3H324v-25h25.2v-13h-25.5v-12.5h25.5v-25.5
	c-4.2,0-8.3,0-12.7-0.2v-12.5h12.7v-25.2c4.2-0.2,8.3-0.2,12.5,0v25.2c-4.2,0.2-8.3,0.2-12.5,0v12.5h12.5v-12.3h12.7v-38h-25.2v12.3
	h-13v-12.5h-12.5v25.5h12.5v12.5H324v12.5h-12.5v-12.5h12.3v-12.5h-12.5v12.5h-50.7v12.5H248v-12.5h-12.7v-12.5h-12.7v-13h13v-12.5
	h25v12.5h12.7v13h38v-13h-13v-12.5H286v12.5h-12.5v-25.2c8.3-0.2,16.5-0.2,24.8,0v12.7h13v-12.7c4.2-0.2,8.3-0.2,12.5,0v-12.5h-12.5
	v12.3c-4.4,0.2-8.6,0.2-13,0v-25h25.5v-12.7h-38v25.5h-12.5v12.3H248v-38.2h12.5v-12.3h12.5v-12.5h-12.7V146H248v-12.5h12.5v-13
	h12.7V70h-13V57.3h-37.8v25.5h12.7V70.2h12.5v12.5h-12.5c-0.2,8.3-0.2,16.9,0.4,25.2h12.5v12.5h-12.5V108h-13v25.5h12.7v25h-12.7
	v-25h-12.5v50.7h25.2v12.5h-13v13h-12.5v25.5h12.3v25.2h25.5v12.7h-12.5v12.7h12.5v12.5h-12.5v13h-12.7V324h-12.7v12.7h12.5v13
	h-12.3v25.2h25.5v-12.7h12.3c0,4.2,0,8.3,0.4,12.3h25.5v-12.7h12.5v12.7h25.2v-13h-13V349h-25.2v-12.7h-13v25.5H248v-12.3h-12.5V324
	H248v-12.5h12.5V324h38v12.5h13v13H324z M311,311h-37.8v-37.8H311V311z"/>
<path id="path_14" d="M121,248h-12.5v-25.5H121v-12.7h12.7v12.3h12.5v13h25.5v-13h-13v-12.5h-24.8v-12.7h12.5v-12.5H95.9v25.5H83
	v-12.7H70.2v-12.7H57.5v25.5h12.7v12.5H83v13h12.7v12.5H70.2c0,4,0,8.1,0.2,12.7h-13v12.7H83v-12.7h25.5v12.7h38v-12.7H121V248z
	 M374.7,57.5H286v88.7h88.7V57.5z M361.8,133.5h-63.2V70.2h63.2V133.5z M57.3,146.2H146V57.5H57.3V146.2z M70.2,70.2h63.2v63.2H70.2
	V70.2z M57.5,374.5h88.7v-88.7H57.5V374.5z M70.2,298.5h63.2v63.2H70.2V298.5z M171.7,82.5h12.5V70c-8.3,0.2-16.9,0.2-25.5,0v25.2
	h13V82.5z M349.2,184.4v12.3h25.2v-25H362c-0.2-4.2-0.2-8.6-0.2-12.7h-25.2v12.7h25.2c0.2,4.2,0.2,8.3,0,12.7H349.2z M171.9,184.4
	h24.8v12.3h-24.8V184.4z M196.9,70.2v12.5h12.7V57.5h-25.2v12.7C188.3,70,192.5,70,196.9,70.2z M209.6,108.2h-13V95.7h-12.3v25h25.2
	V108.2z M158.9,349.5h12.7v25.2h-12.7V349.5z M184.2,171.4h12.3v-37.8H184V146h-12.5v-37.8h-12.7v50.5h25.5V171.4z M362,298.1v13
	h12.7v-37.8h-13v12.5h-12.5v12.3H362z M158.7,323.8v12.5h25.5c0-4.2,0-8.3-0.2-12.5H158.7z M184.2,336.3h12.5v25.2h-12.5V336.3z
	 M133.7,158.7h25v12.7h-25V158.7z M349.5,362h25.2v12.7h-25.2V362z M95.7,184.2v-12.5h-13v-13H57.5v13h12.7v12.5H95.7z M285.8,285.8
	h12.3v12.3h-12.3V285.8z"/>
<path id="path_15" d="M146.2,247.8h12.5v12.5h-12.5V247.8z M133.7,235.3h12.5v12.5h-12.5V235.3z M222.4,285.8h13v12.5h-13V285.8z
	 M95.7,158.9h12.5v12.7H95.7V158.9z M83,82.8h37.8v37.8H83V82.8z M196.9,235.1h13v12.5h-13V235.1z M184.4,222.4h12.5v12.7h-12.5
	V222.4z M311.5,83h37.8v37.8h-37.8V83z M171.9,298.3v13h12.3v12.5h25.7c-0.2-4.2-0.2-8.1-0.2-12.5h-25.2c-0.2-4.2-0.2-8.6,0-13
	H171.9z M171.7,235.1h12.5v12.5h-12.5V235.1z M82.8,311.3h37.8V349H82.8V311.3z M57.5,235.3h12.7v12.5H57.5V235.3z M362,336.5h12.7
	v12.7H362V336.5z"/>
</svg>
